<?xml version="1.0" encoding="utf-8"?>
<!-- Generator: Adobe Illustrator 18.0.0, SVG Export Plug-In . SVG Version: 6.00 Build 0)  -->
<!DOCTYPE svg PUBLIC "-//W3C//DTD SVG 1.1//EN" "http://www.w3.org/Graphics/SVG/1.1/DTD/svg11.dtd">
<svg version="1.1" id="Layer_1" xmlns="http://www.w3.org/2000/svg" xmlns:xlink="http://www.w3.org/1999/xlink" x="0px" y="0px"
	 viewBox="0 0 800 792" enable-background="new 0 0 800 792" xml:space="preserve">
<circle opacity="0.2" fill="#FDB937" cx="391.5" cy="410.5" r="322.5"/>
<g>
	<path fill="#AF1E4D" d="M588.6,329.3L427.7,172.1c-20.1-19.6-52.4-19.6-72.5,0L194.4,329.3v251.4h394.1V329.3z"/>
	<path fill="#FFFFFF" d="M447.8,305.5l-51.1-51.1c-0.7-0.7-1.5-1.2-2.4-1.6c-1.8-0.7-3.8-0.7-5.6,0c-0.9,0.4-1.7,0.9-2.4,1.6
		l-51.1,51.1c-2.9,2.9-2.9,7.5,0,10.3c1.4,1.4,3.3,2.1,5.2,2.1c1.9,0,3.7-0.7,5.2-2.1l38.6-38.6v121.1c0,4,3.3,7.3,7.3,7.3
		c4,0,7.3-3.3,7.3-7.3V277.1l38.6,38.6c1.4,1.4,3.3,2.1,5.2,2.1c1.9,0,3.7-0.7,5.2-2.1C450.6,312.9,450.6,308.3,447.8,305.5z"/>
	<path fill="#F05C94" d="M588.6,580.7L423.9,453.2c-20.1-13.8-46.7-13.9-66.9-0.2c-56.6,38.4-162.6,127.7-162.6,127.7H588.6z"/>
	<path fill="#CD3162" d="M363.5,449.3h-1.2L194.4,332.5v248.2c0,0,106-89.3,162.6-127.7C359.1,451.6,361.3,450.4,363.5,449.3z"/>
	<path fill="#CD3162" d="M420.7,449.3h-3.5c2.3,1.2,4.5,2.4,6.7,3.9l164.6,127.5V332.5L420.7,449.3z"/>
</g>
</svg>
